<svg xmlns="http://www.w3.org/2000/svg">
<svg xmlns="http://www.w3.org/2000/svg" width="16" height="16" fill="currentColor" class="bi bi-envelope-fill" viewBox="0 0 16 16" id="mail" preserveAspectRatio="xMidYMid meet">
  <path d="M.05 3.555A2 2 0 0 1 2 2h12a2 2 0 0 1 1.95 1.555L8 8.414.05 3.555zM0 4.697v7.104l5.803-3.558L0 4.697zM6.761 8.83l-6.57 4.027A2 2 0 0 0 2 14h12a2 2 0 0 0 1.808-1.144l-6.57-4.027L8 9.586l-1.239-.757zm3.436-.586L16 11.801V4.697l-5.803 3.546z"/>
</svg>
<svg width="143px" height="64px" viewBox="0 0 143 64" version="1.1" xmlns="http://www.w3.org/2000/svg" xmlns:xlink="http://www.w3.org/1999/xlink" id="soundcloud" preserveAspectRatio="xMidYMid meet">
    <!-- Generator: Sketch 55.2 (78181) - https://sketchapp.com -->
    <title>sc-logo-cloud-raven</title>
    <desc>Created with Sketch.</desc>
    <g id="Expot-ready" stroke="none" stroke-width="1" fill="none" fill-rule="evenodd">
        <g id="logos-raven" transform="translate(-166.000000, -1125.000000)" fill="currentColor" fill-rule="nonzero">
            <path d="M308.984235,1169.99251 C308.382505,1180.70295 299.444837,1189.03525 288.718543,1188.88554 L240.008437,1188.88554 C237.777524,1188.86472 235.977065,1187.05577 235.966737,1184.82478 L235.966737,1132.37801 C235.894282,1130.53582 236.962478,1128.83883 238.654849,1128.10753 C238.654849,1128.10753 243.135035,1124.99996 252.572022,1124.99996 C258.337036,1124.99309 263.996267,1126.54789 268.948531,1129.49925 C276.76341,1134.09703 282.29495,1141.75821 284.200228,1150.62285 C285.880958,1150.14737 287.620063,1149.90993 289.36674,1149.91746 C294.659738,1149.88414 299.738952,1152.0036 303.438351,1155.78928 C307.13775,1159.57496 309.139562,1164.70168 308.984235,1169.99251 Z M229.885123,1135.69525 C231.353099,1153.48254 232.420718,1169.70654 229.885123,1187.43663 C229.796699,1188.23857 229.119091,1188.84557 228.312292,1188.84557 C227.505494,1188.84557 226.827885,1188.23857 226.739461,1187.43663 C224.375448,1169.85905 225.404938,1153.33003 226.739461,1135.69525 C226.672943,1135.09199 226.957336,1134.50383 227.471487,1134.18133 C227.985639,1133.85884 228.638946,1133.85884 229.153097,1134.18133 C229.667248,1134.50383 229.951641,1135.09199 229.885123,1135.69525 Z M220.028715,1187.4557 C219.904865,1188.26549 219.208361,1188.86356 218.389157,1188.86356 C217.569953,1188.86356 216.87345,1188.26549 216.7496,1187.4557 C214.986145,1172.28686 214.986145,1156.96477 216.7496,1141.79593 C216.840309,1140.9535 217.551388,1140.31488 218.398689,1140.31488 C219.245991,1140.31488 219.95707,1140.9535 220.047779,1141.79593 C222.005153,1156.95333 221.998746,1172.29994 220.028715,1187.4557 Z M210.153241,1140.2517 C211.754669,1156.55195 212.479125,1171.15545 210.134176,1187.41757 C210.134176,1188.29148 209.425728,1188.99993 208.551813,1188.99993 C207.677898,1188.99993 206.969449,1188.29148 206.969449,1187.41757 C204.70076,1171.36516 205.463344,1156.34224 206.969449,1140.2517 C207.05845,1139.43964 207.744425,1138.82474 208.561345,1138.82474 C209.378266,1138.82474 210.06424,1139.43964 210.153241,1140.2517 Z M200.258703,1187.47476 C200.169129,1188.29694 199.474788,1188.91975 198.647742,1188.91975 C197.820697,1188.91975 197.126356,1188.29694 197.036782,1187.47476 C195.216051,1173.32359 195.216051,1158.99744 197.036782,1144.84627 C197.036782,1143.94077 197.770837,1143.20671 198.676339,1143.20671 C199.581842,1143.20671 200.315897,1143.94077 200.315897,1144.84627 C202.251054,1158.99121 202.231809,1173.33507 200.258703,1187.47476 Z M190.383229,1155.50339 C192.880695,1166.56087 191.755882,1176.32196 190.287906,1187.58915 C190.168936,1188.33924 189.522207,1188.89148 188.762737,1188.89148 C188.003266,1188.89148 187.356537,1188.33924 187.237567,1187.58915 C185.903044,1176.47448 184.797296,1166.48462 187.142244,1155.50339 C187.142244,1154.60842 187.867763,1153.8829 188.762737,1153.8829 C189.65771,1153.8829 190.383229,1154.60842 190.383229,1155.50339 Z M180.526821,1153.82571 C182.814575,1165.15009 182.071055,1174.7396 180.469627,1186.10211 C180.27898,1187.7798 177.400223,1187.79886 177.247706,1186.10211 C175.798795,1174.91118 175.112468,1165.0357 177.190512,1153.82571 C177.281785,1152.97315 178.001234,1152.32661 178.858666,1152.32661 C179.716099,1152.32661 180.435548,1152.97315 180.526821,1153.82571 Z M170.575089,1159.31632 C172.977231,1166.82778 172.157452,1172.92846 170.479765,1180.63056 C170.391921,1181.42239 169.722678,1182.02149 168.925999,1182.02149 C168.12932,1182.02149 167.460077,1181.42239 167.372232,1180.63056 C165.923321,1173.08097 165.332318,1166.84684 167.23878,1159.31632 C167.330053,1158.46376 168.049502,1157.81722 168.906934,1157.81722 C169.764367,1157.81722 170.483816,1158.46376 170.575089,1159.31632 Z" id="sc-logo-cloud-raven"></path>
        </g>
    </g>
</svg>
<svg overflow="visible" version="1.1" viewBox="8 8 24 24" xmlns="http://www.w3.org/2000/svg" id="twitch">
    <path fill="currentColor" d="M13 8 L8 13 8 31 14 31 14 36 19 31 23 31 32 22 32 8 M22 25 L18 29 18 25 14 25 14 10 30 10 30 21 26 25 M20,14 L22,14 L22,20 L20,20 L20,14 Z M27,14 L27,20 L25,20 L25,14 L27,14 Z" />
</svg>
<svg xmlns="http://www.w3.org/2000/svg" width="16" height="16" fill="currentColor" class="bi bi-clipboard" viewBox="0 0 16 16" id="clipboard">
  <path d="M4 1.5H3a2 2 0 0 0-2 2V14a2 2 0 0 0 2 2h10a2 2 0 0 0 2-2V3.5a2 2 0 0 0-2-2h-1v1h1a1 1 0 0 1 1 1V14a1 1 0 0 1-1 1H3a1 1 0 0 1-1-1V3.5a1 1 0 0 1 1-1h1v-1z"/>
  <path d="M9.5 1a.5.5 0 0 1 .5.5v1a.5.5 0 0 1-.5.5h-3a.5.5 0 0 1-.5-.5v-1a.5.5 0 0 1 .5-.5h3zm-3-1A1.5 1.5 0 0 0 5 1.5v1A1.5 1.5 0 0 0 6.5 4h3A1.5 1.5 0 0 0 11 2.5v-1A1.5 1.5 0 0 0 9.5 0h-3z"/>
</svg>
<svg xmlns="http://www.w3.org/2000/svg" width="16" height="16" fill="currentColor" class="bi bi-clipboard-check" viewBox="0 0 16 16" id="clipboard-check" preserveAspectRatio="xMidYMid meet">
  <path fill-rule="evenodd" d="M10.854 7.146a.5.5 0 0 1 0 .708l-3 3a.5.5 0 0 1-.708 0l-1.5-1.5a.5.5 0 1 1 .708-.708L7.5 9.793l2.646-2.647a.5.5 0 0 1 .708 0z"/>
  <path d="M4 1.5H3a2 2 0 0 0-2 2V14a2 2 0 0 0 2 2h10a2 2 0 0 0 2-2V3.5a2 2 0 0 0-2-2h-1v1h1a1 1 0 0 1 1 1V14a1 1 0 0 1-1 1H3a1 1 0 0 1-1-1V3.5a1 1 0 0 1 1-1h1v-1z"/>
  <path d="M9.5 1a.5.5 0 0 1 .5.5v1a.5.5 0 0 1-.5.5h-3a.5.5 0 0 1-.5-.5v-1a.5.5 0 0 1 .5-.5h3zm-3-1A1.5 1.5 0 0 0 5 1.5v1A1.5 1.5 0 0 0 6.5 4h3A1.5 1.5 0 0 0 11 2.5v-1A1.5 1.5 0 0 0 9.5 0h-3z"/>
</svg>
<svg xmlns="http://www.w3.org/2000/svg" width="16" height="16" fill="currentColor" class="bi bi-headphones" viewBox="0 0 16 16" id="headphones">
  <path d="M8 3a5 5 0 0 0-5 5v1h1a1 1 0 0 1 1 1v3a1 1 0 0 1-1 1H3a1 1 0 0 1-1-1V8a6 6 0 1 1 12 0v5a1 1 0 0 1-1 1h-1a1 1 0 0 1-1-1v-3a1 1 0 0 1 1-1h1V8a5 5 0 0 0-5-5z"/>
</svg>
<svg xmlns="http://www.w3.org/2000/svg" width="16" height="16" viewBox="67 125 277 184.5" id="moodle">
    <path xmlns="http://www.w3.org/2000/svg" fill="currentColor" d="M289.6,309.8V201.5c0-22.6-9.4-34-28-34c-18.7,0-28.1,11.3-28.1,34v108.3h-55.1V201.5   c0-22.6-9.2-34-27.6-34c-18.7,0-28,11.3-28,34v108.3H67.7V195.1c0-23.6,8.2-41.5,24.6-53.6c14.4-10.8,34-16.3,58.6-16.3   c24.9,0,43.3,6.4,55.1,19.2c10.2-12.8,28.7-19.2,55.6-19.2c24.6,0,44.1,5.4,58.5,16.3c16.4,12.1,24.6,30,24.6,53.6v114.7H289.6z"/>
</svg>
<svg xmlns="http://www.w3.org/2000/svg" width="16" height="16" viewBox="10 10 17.716556549072266 21.77596664428711" id="apple" overflow="visible">
    <g>
        <path id="_Path_" d="M24.76888,20.30068a4.94881,4.94881,0,0,1,2.35656-4.15206,5.06566,5.06566,0,0,0-3.99116-2.15768c-1.67924-.17626-3.30719,1.00483-4.1629,1.00483-.87227,0-2.18977-.98733-3.6085-.95814a5.31529,5.31529,0,0,0-4.47292,2.72787c-1.934,3.34842-.49141,8.26947,1.3612,10.97608.9269,1.32535,2.01018,2.8058,3.42763,2.7533,1.38706-.05753,1.9051-.88448,3.5794-.88448,1.65876,0,2.14479.88448,3.591.8511,1.48838-.02416,2.42613-1.33124,3.32051-2.66914a10.962,10.962,0,0,0,1.51842-3.09251A4.78205,4.78205,0,0,1,24.76888,20.30068Z"/>
        <path id="_Path_2" d="M22.03725,12.21089a4.87248,4.87248,0,0,0,1.11452-3.49062,4.95746,4.95746,0,0,0-3.20758,1.65961,4.63634,4.63634,0,0,0-1.14371,3.36139A4.09905,4.09905,0,0,0,22.03725,12.21089Z" />
    </g>
</svg>
<svg xmlns="http://www.w3.org/2000/svg" width="16" height="16" fill="currentColor" class="bi bi-compass-fill" viewBox="0 0 16 16" id="compass">
  <path d="M15.5 8.516a7.5 7.5 0 1 1-9.462-7.24A1 1 0 0 1 7 0h2a1 1 0 0 1 .962 1.276 7.503 7.503 0 0 1 5.538 7.24zm-3.61-3.905L6.94 7.439 4.11 12.39l4.95-2.828 2.828-4.95z"/>
</svg>
</svg>
