<?xml version="1.0" encoding="utf-8"?>
<!-- Generator: Adobe Illustrator 25.4.1, SVG Export Plug-In . SVG Version: 6.00 Build 0)  -->
<svg version="1.1" id="Layer_1" xmlns="http://www.w3.org/2000/svg" xmlns:xlink="http://www.w3.org/1999/xlink" x="0px" y="0px"
	 viewBox="0 0 16 16" style="enable-background:new 0 0 16 16;" xml:space="preserve">
<path d="M8,1C5.5,1,3.5,3,3.5,5.5S5.5,10,8,10c0.9,0,1.8-0.3,2.5-0.8v1.3c0,0.4-0.1,0.8-0.3,1.1c-0.1,0.2-0.2,0.4-0.3,0.5
	c0,0,0,0,0,0v0C9.4,12.7,8.7,13,8,13c-1,0-1.8-0.6-2.2-1.4c-0.8-0.3-1.6-0.8-2.2-1.4c0,0.1,0,0.2,0,0.3C3.5,13,5.5,15,8,15
	c1.4,0,2.6-0.6,3.4-1.6c0-0.1,0.1-0.1,0.1-0.2c0.1-0.1,0.2-0.2,0.3-0.4c0.1-0.1,0.2-0.3,0.2-0.5c0-0.1,0.1-0.2,0.1-0.3
	c0.1-0.2,0.1-0.4,0.2-0.6c0-0.1,0-0.2,0-0.2c0-0.3,0.1-0.5,0.1-0.8v-5C12.5,3,10.5,1,8,1z M8,8C6.6,8,5.5,6.9,5.5,5.5S6.6,3,8,3
	c1.4,0,2.5,1.1,2.5,2.5S9.4,8,8,8z"/>
</svg>
